<?xml version="1.0" encoding="UTF-8" standalone="no"?>
<svg
   width="266.67697"
   zoomAndPan="magnify"
   viewBox="0 0 199.90105 41.279101"
   height="55.038803"
   preserveAspectRatio="xMidYMid"
   version="1.0"
   id="svg35"
   xmlns="http://www.w3.org/2000/svg"
   xmlns:svg="http://www.w3.org/2000/svg">
  <defs
     id="defs1">
    <clipPath
       clipPathUnits="userSpaceOnUse"
       id="clipPath63">
      <rect
         style="display:inline;fill:#000000;fill-opacity:0.424051;stroke-width:1.00444"
         id="rect63"
         width="268.11798"
         height="56.107277"
         x="-187.06352"
         y="-14.119203"
         transform="rotate(90)" />
    </clipPath>
    <clipPath
       clipPathUnits="userSpaceOnUse"
       id="clipPath64">
      <rect
         style="display:inline;fill:#000000;fill-opacity:0.424051;stroke-width:1.00444"
         id="rect64"
         width="268.11798"
         height="56.107277"
         x="-187.06352"
         y="-55.811256"
         transform="rotate(90)" />
    </clipPath>
    <clipPath
       clipPathUnits="userSpaceOnUse"
       id="clipPath65">
      <rect
         style="display:inline;fill:#000000;fill-opacity:0.424051;stroke-width:1.00444"
         id="rect65"
         width="268.11798"
         height="56.107277"
         x="-264.85709"
         y="-54.312859"
         transform="rotate(90)" />
    </clipPath>
    <clipPath
       clipPathUnits="userSpaceOnUse"
       id="clipPath66">
      <rect
         style="display:inline;fill:#000000;fill-opacity:0.424051;stroke-width:1.00444"
         id="rect66"
         width="268.11798"
         height="56.107277"
         x="-187.0701"
         y="-52.817848" />
    </clipPath>
    <clipPath
       clipPathUnits="userSpaceOnUse"
       id="clipPath67">
      <rect
         style="display:inline;fill:#000000;fill-opacity:0.424051;stroke-width:1.00444"
         id="rect67"
         width="268.11798"
         height="56.107277"
         x="-187.0701"
         y="-0.53247023" />
    </clipPath>
    <clipPath
       clipPathUnits="userSpaceOnUse"
       id="clipPath68">
      <rect
         style="display:inline;fill:#000000;fill-opacity:0.424051;stroke-width:0.75"
         id="rect68"
         width="200.19861"
         height="41.894238"
         x="13.234436"
         y="33.62711" />
    </clipPath>
    <clipPath
       clipPathUnits="userSpaceOnUse"
       id="clipPath69">
      <rect
         style="display:inline;fill:#000000;fill-opacity:0.424051;stroke-width:0.75"
         id="rect69"
         width="200.19861"
         height="41.894238"
         x="13.234436"
         y="33.62711" />
    </clipPath>
    <clipPath
       clipPathUnits="userSpaceOnUse"
       id="clipPath70">
      <rect
         style="display:inline;fill:#000000;fill-opacity:0.424051;stroke-width:0.75"
         id="rect70"
         width="200.19861"
         height="41.894238"
         x="13.234436"
         y="33.62711" />
    </clipPath>
    <clipPath
       clipPathUnits="userSpaceOnUse"
       id="clipPath71">
      <rect
         style="display:inline;fill:#000000;fill-opacity:0.424051;stroke-width:0.75"
         id="rect71"
         width="200.19861"
         height="41.894238"
         x="13.234436"
         y="33.62711" />
    </clipPath>
    <clipPath
       clipPathUnits="userSpaceOnUse"
       id="clipPath72">
      <rect
         style="display:inline;fill:#000000;fill-opacity:0.424051;stroke-width:0.75"
         id="rect72"
         width="200.19861"
         height="41.894238"
         x="13.234436"
         y="33.62711" />
    </clipPath>
    <clipPath
       clipPathUnits="userSpaceOnUse"
       id="clipPath73">
      <rect
         style="display:inline;fill:#000000;fill-opacity:0.424051;stroke-width:0.75"
         id="rect73"
         width="200.19861"
         height="41.894238"
         x="13.234436"
         y="33.62711" />
    </clipPath>
    <clipPath
       clipPathUnits="userSpaceOnUse"
       id="clipPath74">
      <rect
         style="display:inline;fill:#000000;fill-opacity:0.424051;stroke-width:0.75"
         id="rect74"
         width="200.19861"
         height="41.894238"
         x="13.234436"
         y="33.62711" />
    </clipPath>
    <clipPath
       clipPathUnits="userSpaceOnUse"
       id="clipPath75">
      <rect
         style="display:inline;fill:#000000;fill-opacity:0.424051;stroke-width:0.75"
         id="rect75"
         width="200.19861"
         height="41.894238"
         x="13.234436"
         y="33.62711" />
    </clipPath>
    <clipPath
       clipPathUnits="userSpaceOnUse"
       id="clipPath76">
      <rect
         style="display:inline;fill:#000000;fill-opacity:0.424051;stroke-width:0.75"
         id="rect76"
         width="200.19861"
         height="41.894238"
         x="13.234436"
         y="33.62711" />
    </clipPath>
    <clipPath
       clipPathUnits="userSpaceOnUse"
       id="clipPath77">
      <rect
         style="display:inline;fill:#000000;fill-opacity:0.424051;stroke-width:0.75"
         id="rect77"
         width="200.19861"
         height="41.894238"
         x="13.234436"
         y="33.62711" />
    </clipPath>
  </defs>
  <g
     fill="#1e8b57"
     fill-opacity="1"
     id="g4"
     clip-path="url(#clipPath77)"
     style="display:inline"
     transform="translate(-13.294438,-34.02451)">
    <g
       transform="translate(11.638006,66.74681)"
       id="g3">
      <g
         id="g2">
        <path
           d="m 13.84375,-21.46875 v 4.28125 H 6.453125 v 4.28125 h 7.078125 v 4.296875 H 6.453125 v 4.3125 H 13.84375 V 0 H 1.5625 v -21.46875 z m 0,0"
           id="path1" />
      </g>
    </g>
  </g>
  <g
     fill="#1e8b57"
     fill-opacity="1"
     id="g7"
     clip-path="url(#clipPath76)"
     style="display:inline"
     transform="translate(-13.294438,-34.02451)">
    <g
       transform="translate(29.335448,66.74681)"
       id="g6">
      <g
         id="g5">
        <path
           d="M 6.453125,-13.328125 V 0 H 1.5625 V -21.46875 H 6.453125 L 15,-8.140625 h 0.04687 V -21.46875 H 19.9375 V 0 h -4.890625 l -8.53125,-13.328125 z m 0,0"
           id="path4" />
      </g>
    </g>
  </g>
  <g
     fill="#1e8b57"
     fill-opacity="1"
     id="g10"
     clip-path="url(#clipPath75)"
     style="display:inline"
     transform="translate(-13.294438,-34.02451)">
    <g
       transform="translate(53.435203,66.74681)"
       id="g9">
      <g
         id="g8">
        <path
           d="m 13.84375,-21.46875 v 4.28125 H 6.453125 v 4.28125 h 7.078125 v 4.296875 H 6.453125 v 4.3125 H 13.84375 V 0 H 1.5625 v -21.46875 z m 0,0"
           id="path7" />
      </g>
    </g>
  </g>
  <g
     fill="#1e8b57"
     fill-opacity="1"
     id="g13"
     clip-path="url(#clipPath74)"
     transform="translate(-13.294438,-34.02451)">
    <g
       transform="translate(71.132644,66.74681)"
       id="g12">
      <g
         id="g11">
        <path
           d="m 1.5625,-21.46875 h 7.671875 c 2.070313,0 3.757813,0.554688 5.0625,1.65625 1.300781,1.09375 1.953125,2.667969 1.953125,4.71875 0,1.574219 -0.398438,2.898438 -1.1875,3.96875 -0.792969,1.0625 -1.867188,1.8125 -3.21875,2.25 L 19.234375,0 h -6.21875 l -6.5625,-8.484375 V 0 H 1.5625 Z m 4.890625,9.515625 H 7.03125 c 0.445312,0 0.828125,-0.0039 1.140625,-0.01563 0.3125,-0.01953 0.664063,-0.08203 1.0625,-0.1875 0.40625,-0.101562 0.726563,-0.25 0.96875,-0.4375 0.238281,-0.195312 0.445313,-0.476562 0.625,-0.84375 0.175781,-0.363281 0.265625,-0.804688 0.265625,-1.328125 0,-0.519531 -0.08984,-0.960937 -0.265625,-1.328125 -0.179687,-0.363281 -0.386719,-0.640625 -0.625,-0.828125 -0.242187,-0.1875 -0.5625,-0.332031 -0.96875,-0.4375 -0.398437,-0.101563 -0.75,-0.164063 -1.0625,-0.1875 -0.3125,-0.01953 -0.695313,-0.03125 -1.140625,-0.03125 H 6.453125 Z m 0,0"
           id="path10" />
      </g>
    </g>
  </g>
  <g
     fill="#1e8b57"
     fill-opacity="1"
     id="g16"
     clip-path="url(#clipPath73)"
     transform="translate(-13.294438,-34.02451)">
    <g
       transform="translate(92.369576,66.74681)"
       id="g15">
      <g
         id="g14">
        <path
           d="m 20.984375,-12.03125 v 4.671875 c -0.5625,2.542969 -1.78125,4.46875 -3.65625,5.78125 -1.867187,1.3125 -3.953125,1.96875 -6.265625,1.96875 -2.898438,0 -5.367188,-1.082031 -7.40625,-3.25 -2.042969,-2.175781 -3.0625,-4.796875 -3.0625,-7.859375 0,-3.125 0.992188,-5.757812 2.984375,-7.90625 2,-2.15625 4.492187,-3.234375 7.484375,-3.234375 3.488281,0 6.25,1.21875 8.28125,3.65625 l -3.203125,3.515625 c -1.148437,-1.832031 -2.746094,-2.75 -4.796875,-2.75 -1.511719,0 -2.796875,0.65625 -3.859375,1.96875 -1.0625,1.304688 -1.59375,2.886719 -1.59375,4.75 0,1.824219 0.53125,3.382812 1.59375,4.671875 1.0625,1.292969 2.347656,1.9375 3.859375,1.9375 1.25,0 2.335938,-0.375 3.265625,-1.125 C 15.546875,-5.992188 16.015625,-7 16.015625,-8.25 H 11.0625 v -3.78125 z m 0,0"
           id="path13" />
      </g>
    </g>
  </g>
  <g
     fill="#1e8b57"
     fill-opacity="1"
     id="g19"
     clip-path="url(#clipPath72)"
     transform="translate(-13.294438,-34.02451)">
    <g
       transform="translate(116.54741,66.74681)"
       id="g18">
      <g
         id="g17">
        <path
           d="M 6.453125,-21.46875 V 0 H 1.5625 v -21.46875 z m 0,0"
           id="path16" />
      </g>
    </g>
  </g>
  <g
     fill="#1e8b57"
     fill-opacity="1"
     id="g22"
     clip-path="url(#clipPath71)"
     transform="translate(-13.294438,-34.02451)">
    <g
       transform="translate(127.16588,66.74681)"
       id="g21">
      <g
         id="g20">
        <path
           d="M 12.46875,-21.46875 21.140625,0 H 15.875 L 14.296875,-4.296875 H 6.125 L 4.53125,0 H -0.734375 L 7.9375,-21.46875 Z m 0.15625,12.875 -2.390625,-6.25 h -0.0625 l -2.390625,6.25 z m 0,0"
           id="path19" />
      </g>
    </g>
  </g>
  <g
     fill="#000000"
     fill-opacity="1"
     id="g25"
     clip-path="url(#clipPath70)"
     transform="translate(-13.294438,-34.02451)">
    <g
       transform="translate(157.38175,62.083048)"
       id="g24">
      <g
         id="g23">
        <path
           d="m 1.484375,0 v -16.59375 h 5.8125 c 2.007813,0 3.535156,0.386719 4.578125,1.15625 1.039062,0.773438 1.5625,1.902344 1.5625,3.390625 0,0.8125 -0.210938,1.53125 -0.625,2.15625 -0.417969,0.617187 -1,1.070313 -1.75,1.359375 0.851562,0.210938 1.523438,0.636719 2.015625,1.28125 0.488281,0.648438 0.734375,1.4375 0.734375,2.375 0,1.59375 -0.511719,2.804688 -1.53125,3.625 C 11.269531,-0.425781 9.820312,-0.0078125 7.9375,0 Z M 4.90625,-7.21875 V -2.75 h 2.921875 c 0.800781,0 1.425781,-0.1875 1.875,-0.5625 0.457031,-0.382812 0.6875,-0.914062 0.6875,-1.59375 0,-1.519531 -0.789063,-2.289062 -2.359375,-2.3125 z m 0,-2.421875 H 7.4375 c 1.71875,-0.03125 2.578125,-0.71875 2.578125,-2.0625 0,-0.75 -0.21875,-1.289063 -0.65625,-1.625 -0.4375,-0.332031 -1.125,-0.5 -2.0625,-0.5 H 4.90625 Z m 0,0"
           id="path22" />
      </g>
    </g>
  </g>
  <g
     fill="#000000"
     fill-opacity="1"
     id="g28"
     clip-path="url(#clipPath69)"
     style="display:inline"
     transform="translate(-13.294438,-34.02451)">
    <g
       transform="translate(174.616,62.083048)"
       id="g27">
      <g
         id="g26">
        <path
           d="M 14.984375,0 H 11.5625 V -7.109375 H 4.90625 V 0 H 1.484375 V -16.59375 H 4.90625 V -9.875 h 6.65625 v -6.71875 h 3.421875 z m 0,0"
           id="path25" />
      </g>
    </g>
  </g>
  <g
     fill="#000000"
     fill-opacity="1"
     id="g31"
     clip-path="url(#clipPath68)"
     transform="translate(-13.294438,-34.02451)">
    <g
       transform="translate(193.44614,62.083048)"
       id="g30">
      <g
         id="g29">
        <path
           d="M 4.90625,-5.84375 V 0 H 1.484375 v -16.59375 h 6.46875 c 1.25,0 2.34375,0.230469 3.28125,0.6875 0.945313,0.449219 1.675781,1.09375 2.1875,1.9375 0.507813,0.84375 0.765625,1.796875 0.765625,2.859375 0,1.636719 -0.558594,2.921875 -1.671875,3.859375 -1.117187,0.9375 -2.652344,1.40625 -4.609375,1.40625 z m 0,-2.765625 h 3.046875 c 0.90625,0 1.59375,-0.210937 2.0625,-0.640625 0.476563,-0.425781 0.71875,-1.035156 0.71875,-1.828125 0,-0.8125 -0.242187,-1.46875 -0.71875,-1.96875 -0.480469,-0.5 -1.140625,-0.757813 -1.984375,-0.78125 h -3.125 z m 0,0"
           id="path28" />
      </g>
    </g>
  </g>
  <path
     stroke-linecap="butt"
     fill="none"
     stroke-linejoin="miter"
     d="M 0.00246324,1.499752 H 80.792237"
     stroke="#1e8b57"
     stroke-width="3"
     stroke-opacity="1"
     stroke-miterlimit="4"
     id="path31"
     transform="matrix(0.746681,0,0,0.746681,139.62169,1.8517689e-4)"
     clip-path="url(#clipPath67)" />
  <path
     stroke-linecap="butt"
     transform="matrix(0.746681,0,0,0.746681,139.62169,39.040682)"
     fill="none"
     stroke-linejoin="miter"
     d="M 0.00246324,1.49783 H 80.792237"
     stroke="#1e8b57"
     stroke-width="3"
     stroke-opacity="1"
     stroke-miterlimit="4"
     id="path32"
     clip-path="url(#clipPath66)" />
  <path
     stroke-linecap="butt"
     transform="matrix(0,-0.746681,0.746681,0,197.70376,40.156979)"
     fill="none"
     stroke-linejoin="miter"
     d="M 0.00241241,1.498617 H 52.306768"
     stroke="#1e8b57"
     stroke-width="3"
     stroke-opacity="1"
     stroke-miterlimit="4"
     id="path33"
     clip-path="url(#clipPath65)" />
  <path
     stroke-linecap="butt"
     transform="matrix(0,-0.746681,0.746681,0,139.61677,41.275804)"
     fill="none"
     stroke-linejoin="miter"
     d="M -6.26079e-4,1.500018 H 12.183495"
     stroke="#1e8b57"
     stroke-width="3"
     stroke-opacity="1"
     stroke-miterlimit="4"
     id="path34"
     clip-path="url(#clipPath64)" />
  <path
     stroke-linecap="butt"
     transform="matrix(0,-0.746681,0.746681,0,139.61677,10.14514)"
     fill="none"
     stroke-linejoin="miter"
     d="M 0.00225229,1.500018 H 12.186374"
     stroke="#1e8b57"
     stroke-width="3"
     stroke-opacity="1"
     stroke-miterlimit="4"
     id="path35"
     clip-path="url(#clipPath63)" />
</svg>
