<svg xmlns="http://www.w3.org/2000/svg" xmlns:xlink="http://www.w3.org/1999/xlink" width="300" zoomAndPan="magnify" viewBox="0 0 224.87999 112.499997" height="150" preserveAspectRatio="xMidYMid meet" version="1.0"><defs><g/></defs><g fill="#1e8b57" fill-opacity="1"><g transform="translate(11.638006, 66.74681)"><g><path d="M 13.84375 -21.46875 L 13.84375 -17.1875 L 6.453125 -17.1875 L 6.453125 -12.90625 L 13.53125 -12.90625 L 13.53125 -8.609375 L 6.453125 -8.609375 L 6.453125 -4.296875 L 13.84375 -4.296875 L 13.84375 0 L 1.5625 0 L 1.5625 -21.46875 Z M 13.84375 -21.46875 "/></g></g></g><g fill="#1e8b57" fill-opacity="1"><g transform="translate(29.335448, 66.74681)"><g><path d="M 6.453125 -13.328125 L 6.453125 0 L 1.5625 0 L 1.5625 -21.46875 L 6.453125 -21.46875 L 15 -8.140625 L 15.046875 -8.140625 L 15.046875 -21.46875 L 19.9375 -21.46875 L 19.9375 0 L 15.046875 0 L 6.515625 -13.328125 Z M 6.453125 -13.328125 "/></g></g></g><g fill="#1e8b57" fill-opacity="1"><g transform="translate(53.435203, 66.74681)"><g><path d="M 13.84375 -21.46875 L 13.84375 -17.1875 L 6.453125 -17.1875 L 6.453125 -12.90625 L 13.53125 -12.90625 L 13.53125 -8.609375 L 6.453125 -8.609375 L 6.453125 -4.296875 L 13.84375 -4.296875 L 13.84375 0 L 1.5625 0 L 1.5625 -21.46875 Z M 13.84375 -21.46875 "/></g></g></g><g fill="#1e8b57" fill-opacity="1"><g transform="translate(71.132644, 66.74681)"><g><path d="M 1.5625 -21.46875 L 9.234375 -21.46875 C 11.304688 -21.46875 12.992188 -20.914062 14.296875 -19.8125 C 15.597656 -18.71875 16.25 -17.144531 16.25 -15.09375 C 16.25 -13.519531 15.851562 -12.195312 15.0625 -11.125 C 14.269531 -10.0625 13.195312 -9.3125 11.84375 -8.875 L 19.234375 0 L 13.015625 0 L 6.453125 -8.484375 L 6.453125 0 L 1.5625 0 Z M 6.453125 -11.953125 L 7.03125 -11.953125 C 7.476562 -11.953125 7.859375 -11.957031 8.171875 -11.96875 C 8.484375 -11.988281 8.835938 -12.050781 9.234375 -12.15625 C 9.640625 -12.257812 9.960938 -12.40625 10.203125 -12.59375 C 10.441406 -12.789062 10.648438 -13.070312 10.828125 -13.4375 C 11.003906 -13.800781 11.09375 -14.242188 11.09375 -14.765625 C 11.09375 -15.285156 11.003906 -15.726562 10.828125 -16.09375 C 10.648438 -16.457031 10.441406 -16.734375 10.203125 -16.921875 C 9.960938 -17.109375 9.640625 -17.253906 9.234375 -17.359375 C 8.835938 -17.460938 8.484375 -17.523438 8.171875 -17.546875 C 7.859375 -17.566406 7.476562 -17.578125 7.03125 -17.578125 L 6.453125 -17.578125 Z M 6.453125 -11.953125 "/></g></g></g><g fill="#1e8b57" fill-opacity="1"><g transform="translate(92.369576, 66.74681)"><g><path d="M 20.984375 -12.03125 L 20.984375 -7.359375 C 20.421875 -4.816406 19.203125 -2.890625 17.328125 -1.578125 C 15.460938 -0.265625 13.375 0.390625 11.0625 0.390625 C 8.164062 0.390625 5.695312 -0.691406 3.65625 -2.859375 C 1.613281 -5.035156 0.59375 -7.65625 0.59375 -10.71875 C 0.59375 -13.84375 1.585938 -16.476562 3.578125 -18.625 C 5.578125 -20.78125 8.070312 -21.859375 11.0625 -21.859375 C 14.550781 -21.859375 17.3125 -20.640625 19.34375 -18.203125 L 16.140625 -14.6875 C 14.992188 -16.519531 13.394531 -17.4375 11.34375 -17.4375 C 9.832031 -17.4375 8.546875 -16.78125 7.484375 -15.46875 C 6.421875 -14.164062 5.890625 -12.582031 5.890625 -10.71875 C 5.890625 -8.894531 6.421875 -7.335938 7.484375 -6.046875 C 8.546875 -4.753906 9.832031 -4.109375 11.34375 -4.109375 C 12.59375 -4.109375 13.679688 -4.484375 14.609375 -5.234375 C 15.546875 -5.992188 16.015625 -7 16.015625 -8.25 L 11.0625 -8.25 L 11.0625 -12.03125 Z M 20.984375 -12.03125 "/></g></g></g><g fill="#1e8b57" fill-opacity="1"><g transform="translate(116.547411, 66.74681)"><g><path d="M 6.453125 -21.46875 L 6.453125 0 L 1.5625 0 L 1.5625 -21.46875 Z M 6.453125 -21.46875 "/></g></g></g><g fill="#1e8b57" fill-opacity="1"><g transform="translate(127.165878, 66.74681)"><g><path d="M 12.46875 -21.46875 L 21.140625 0 L 15.875 0 L 14.296875 -4.296875 L 6.125 -4.296875 L 4.53125 0 L -0.734375 0 L 7.9375 -21.46875 Z M 12.625 -8.59375 L 10.234375 -14.84375 L 10.171875 -14.84375 L 7.78125 -8.59375 Z M 12.625 -8.59375 "/></g></g></g><g fill="#000000" fill-opacity="1"><g transform="translate(157.38175, 62.083048)"><g><path d="M 1.484375 0 L 1.484375 -16.59375 L 7.296875 -16.59375 C 9.304688 -16.59375 10.832031 -16.207031 11.875 -15.4375 C 12.914062 -14.664062 13.4375 -13.535156 13.4375 -12.046875 C 13.4375 -11.234375 13.226562 -10.515625 12.8125 -9.890625 C 12.394531 -9.273438 11.8125 -8.820312 11.0625 -8.53125 C 11.914062 -8.320312 12.585938 -7.894531 13.078125 -7.25 C 13.566406 -6.601562 13.8125 -5.8125 13.8125 -4.875 C 13.8125 -3.28125 13.300781 -2.070312 12.28125 -1.25 C 11.269531 -0.425781 9.820312 -0.0078125 7.9375 0 Z M 4.90625 -7.21875 L 4.90625 -2.75 L 7.828125 -2.75 C 8.628906 -2.75 9.253906 -2.9375 9.703125 -3.3125 C 10.160156 -3.695312 10.390625 -4.226562 10.390625 -4.90625 C 10.390625 -6.425781 9.601562 -7.195312 8.03125 -7.21875 Z M 4.90625 -9.640625 L 7.4375 -9.640625 C 9.15625 -9.671875 10.015625 -10.359375 10.015625 -11.703125 C 10.015625 -12.453125 9.796875 -12.992188 9.359375 -13.328125 C 8.921875 -13.660156 8.234375 -13.828125 7.296875 -13.828125 L 4.90625 -13.828125 Z M 4.90625 -9.640625 "/></g></g></g><g fill="#000000" fill-opacity="1"><g transform="translate(174.616005, 62.083048)"><g><path d="M 14.984375 0 L 11.5625 0 L 11.5625 -7.109375 L 4.90625 -7.109375 L 4.90625 0 L 1.484375 0 L 1.484375 -16.59375 L 4.90625 -16.59375 L 4.90625 -9.875 L 11.5625 -9.875 L 11.5625 -16.59375 L 14.984375 -16.59375 Z M 14.984375 0 "/></g></g></g><g fill="#000000" fill-opacity="1"><g transform="translate(193.44614, 62.083048)"><g><path d="M 4.90625 -5.84375 L 4.90625 0 L 1.484375 0 L 1.484375 -16.59375 L 7.953125 -16.59375 C 9.203125 -16.59375 10.296875 -16.363281 11.234375 -15.90625 C 12.179688 -15.457031 12.910156 -14.8125 13.421875 -13.96875 C 13.929688 -13.125 14.1875 -12.171875 14.1875 -11.109375 C 14.1875 -9.472656 13.628906 -8.1875 12.515625 -7.25 C 11.398438 -6.3125 9.863281 -5.84375 7.90625 -5.84375 Z M 4.90625 -8.609375 L 7.953125 -8.609375 C 8.859375 -8.609375 9.546875 -8.820312 10.015625 -9.25 C 10.492188 -9.675781 10.734375 -10.285156 10.734375 -11.078125 C 10.734375 -11.890625 10.492188 -12.546875 10.015625 -13.046875 C 9.535156 -13.546875 8.875 -13.804688 8.03125 -13.828125 L 4.90625 -13.828125 Z M 4.90625 -8.609375 "/></g></g></g><path stroke-linecap="butt" transform="matrix(0.746681, 0, 0, 0.746681, 152.916129, 34.024695)" fill="none" stroke-linejoin="miter" d="M 0.00246324 1.499752 L 80.792237 1.499752 " stroke="#1e8b57" stroke-width="3" stroke-opacity="1" stroke-miterlimit="4"/><path stroke-linecap="butt" transform="matrix(0.746681, 0, 0, 0.746681, 152.916129, 73.065192)" fill="none" stroke-linejoin="miter" d="M 0.00246324 1.49783 L 80.792237 1.49783 " stroke="#1e8b57" stroke-width="3" stroke-opacity="1" stroke-miterlimit="4"/><path stroke-linecap="butt" transform="matrix(0, -0.746681, 0.746681, 0, 210.998198, 74.181489)" fill="none" stroke-linejoin="miter" d="M 0.00241241 1.498617 L 52.306768 1.498617 " stroke="#1e8b57" stroke-width="3" stroke-opacity="1" stroke-miterlimit="4"/><path stroke-linecap="butt" transform="matrix(0, -0.746681, 0.746681, 0, 152.911215, 75.300314)" fill="none" stroke-linejoin="miter" d="M -0.000626079 1.500018 L 12.183495 1.500018 " stroke="#1e8b57" stroke-width="3" stroke-opacity="1" stroke-miterlimit="4"/><path stroke-linecap="butt" transform="matrix(0, -0.746681, 0.746681, 0, 152.911215, 44.16965)" fill="none" stroke-linejoin="miter" d="M 0.00225229 1.500018 L 12.186374 1.500018 " stroke="#1e8b57" stroke-width="3" stroke-opacity="1" stroke-miterlimit="4"/></svg>